<svg xmlns:xlink="http://www.w3.org/1999/xlink" xmlns="http://www.w3.org/2000/svg" width="38.784" height="39.27" viewBox="0 0 38.784 39.27"><g id="Icon_feather-phone" data-name="Icon feather-phone" transform="translate(-2.166 -0.086)" fill="#326639"><path id="Path_12" data-name="Path 12" d="M28.5,1.5l7.044,7.044L28.5,15.587" transform="translate(4.406)" fill="none" stroke="#87BD56" stroke-linecap="round" stroke-linejoin="round" stroke-width="2px"></path><path id="Path_13" data-name="Path 13" d="M22.5,7.5H36.587" transform="translate(3.363 1.044)" fill="none" stroke="#87BD56" stroke-linecap="round" stroke-linejoin="round" stroke-width="2px"></path><path id="Path_14" data-name="Path 14" d="M38.189,29.273v5.283a3.522,3.522,0,0,1-3.839,3.522,34.848,34.848,0,0,1-15.2-5.406A34.338,34.338,0,0,1,8.588,22.106,34.848,34.848,0,0,1,3.182,6.839,3.522,3.522,0,0,1,6.686,3h5.283a3.522,3.522,0,0,1,3.522,3.029,22.61,22.61,0,0,0,1.233,4.948,3.522,3.522,0,0,1-.792,3.716l-2.236,2.236A28.175,28.175,0,0,0,24.26,27.494L26.5,25.258a3.522,3.522,0,0,1,3.716-.792A22.61,22.61,0,0,0,35.16,25.7a3.522,3.522,0,0,1,3.029,3.575Z" transform="translate(0 0.261)" fill="none" stroke="#87BD56" stroke-linecap="round" stroke-linejoin="round" stroke-width="2px"></path></g></svg>